<svg width="18" height="18" viewBox="0 0 18 18" fill="none" xmlns="http://www.w3.org/2000/svg">
<path d="M11.4001 12.9H6.60004C6.42004 12.9 6.30005 13.02 6.30005 13.2C6.30005 13.38 6.42004 13.5 6.60004 13.5H11.4C11.58 13.5 11.7 13.38 11.7 13.2C11.7 13.02 11.5801 12.9 11.4001 12.9Z" fill="#9E9E9E"/>
<path d="M12.2999 14.4H5.69989C5.51989 14.4 5.3999 14.52 5.3999 14.7C5.3999 14.88 5.51989 15 5.69989 15H12.2999C12.4799 15 12.5999 14.88 12.5999 14.7C12.5999 14.52 12.4799 14.4 12.2999 14.4Z" fill="#9E9E9E"/>
<path d="M17.1 3H15V6.6C15 7.43998 14.34 8.10001 13.5 8.10001H4.5C3.66001 8.10001 2.99999 7.44002 2.99999 6.6V3H0.9C0.389988 3 0 3.38999 0 3.9V10.2H18V3.9C18 3.39002 17.61 3 17.1 3Z" fill="#9E9E9E"/>
<path d="M13.2 15.9H4.79999C4.61999 15.9 4.5 16.02 4.5 16.2C4.5 16.38 4.61999 16.5 4.79999 16.5H13.2C13.38 16.5 13.5 16.38 13.5 16.2C13.5 16.02 13.38 15.9 13.2 15.9Z" fill="#9E9E9E"/>
<path d="M0 10.8V14.1001C0 14.6101 0.389988 15.0001 0.9 15.0001H2.94001L2.49001 17.28C2.46002 17.46 2.49001 17.64 2.61 17.7901C2.72999 17.9401 2.88 18 3.06 18H14.94C15.12 18 15.3 17.91 15.39 17.7901C15.51 17.64 15.54 17.46 15.51 17.28L15.06 15.0001H17.1C17.61 15.0001 18 14.6101 18 14.1001V10.8H0ZM3.06 17.4L3.6 14.76L4.14 12H13.86L14.4 14.76L14.94 17.4H3.06Z" fill="#9E9E9E"/>
<path d="M13.1999 5.09998H10.2V6.29996H13.1999V5.09998Z" fill="#9E9E9E"/>
<path d="M14.1001 2.99999V0.600012C14.1001 0.27 13.8301 0 13.5001 0H4.5001C4.17009 0 3.90009 0.27 3.90009 0.600012V3.00002H3.6001V6.60002C3.6001 7.11004 3.99009 7.50002 4.5001 7.50002H13.5001C14.0101 7.50002 14.4001 7.11004 14.4001 6.60002V3.00002H14.1001V2.99999ZM4.5001 0.600012H13.5001V3.00002H4.5001V0.600012ZM13.8001 6.59999C13.8001 6.77999 13.6801 6.89998 13.5001 6.89998H9.9001C9.7201 6.89998 9.60011 6.77999 9.60011 6.59999V4.79999C9.60011 4.61999 9.7201 4.5 9.9001 4.5H13.5001C13.6801 4.5 13.8001 4.61999 13.8001 4.79999V6.59999Z" fill="#9E9E9E"/>
</svg>
